<svg xmlns="http://www.w3.org/2000/svg" viewBox="0 0 600 440" width="600" height="440" role="img" aria-label="The house at Christmas with red, green and white permanent lights, a wreath and fresh snow"><title>The house at Christmas with red, green and white permanent lights, a wreath and fresh snow</title><defs><filter id="glow" filterUnits="userSpaceOnUse" x="-400" y="-400" width="2400" height="2400"><feGaussianBlur stdDeviation="5"/></filter><filter id="wash" filterUnits="userSpaceOnUse" x="-400" y="-400" width="2400" height="2400"><feGaussianBlur stdDeviation="18"/></filter><filter id="soft" filterUnits="userSpaceOnUse" x="-400" y="-400" width="2400" height="2400"><feGaussianBlur stdDeviation="40"/></filter><linearGradient id="win" x1="0" y1="0" x2="0" y2="1"><stop offset="0" stop-color="#ffe7a8"/><stop offset="1" stop-color="#ffb95e"/></linearGradient><linearGradient id="csky" x1="0" y1="0" x2="0" y2="1"><stop offset="0" stop-color="#070f28"/><stop offset="1" stop-color="#1c2c5c"/></linearGradient><linearGradient id="cgr" x1="0" y1="0" x2="0" y2="1"><stop offset="0" stop-color="#c9d6ec"/><stop offset="1" stop-color="#0a1428"/></linearGradient></defs><rect width="600" height="440" fill="url(#csky)"/><circle cx="167.1" cy="231.9" r="1.9" fill="#fff" opacity="0.5"/><circle cx="385" cy="288" r="2" fill="#fff" opacity="0.9"/><circle cx="392.2" cy="82.4" r="1.4" fill="#fff" opacity="0.9"/><circle cx="518.2" cy="172" r="0.8" fill="#fff" opacity="0.5"/><circle cx="74.9" cy="207.5" r="0.8" fill="#fff" opacity="0.6"/><circle cx="309.6" cy="226.3" r="1.6" fill="#fff" opacity="0.4"/><circle cx="54.7" cy="109.5" r="1.3" fill="#fff" opacity="0.9"/><circle cx="97" cy="206.2" r="1.9" fill="#fff" opacity="0.9"/><circle cx="303.1" cy="301.1" r="1.6" fill="#fff" opacity="0.5"/><circle cx="479.6" cy="319" r="0.9" fill="#fff" opacity="0.4"/><circle cx="130.6" cy="233.9" r="0.9" fill="#fff" opacity="0.9"/><circle cx="228.3" cy="204.4" r="0.7" fill="#fff" opacity="0.6"/><circle cx="527.5" cy="235.1" r="1.3" fill="#fff" opacity="0.8"/><circle cx="390.2" cy="75.5" r="1.5" fill="#fff" opacity="0.7"/><circle cx="533.4" cy="258.7" r="1.1" fill="#fff" opacity="0.7"/><circle cx="316.6" cy="198.3" r="1.5" fill="#fff" opacity="0.6"/><circle cx="267.9" cy="97.3" r="1.1" fill="#fff" opacity="0.4"/><circle cx="440.2" cy="233.9" r="1.8" fill="#fff" opacity="0.7"/><circle cx="533.2" cy="175.6" r="2" fill="#fff" opacity="0.6"/><circle cx="240.5" cy="83.9" r="0.6" fill="#fff" opacity="0.5"/><circle cx="160.5" cy="97.5" r="1.1" fill="#fff" opacity="0.5"/><circle cx="193.4" cy="264" r="1.3" fill="#fff" opacity="0.7"/><circle cx="548.1" cy="52" r="0.9" fill="#fff" opacity="0.4"/><circle cx="292.1" cy="292.1" r="0.9" fill="#fff" opacity="0.9"/><circle cx="279.6" cy="126.7" r="1.4" fill="#fff" opacity="0.8"/><circle cx="484" cy="300.2" r="1.4" fill="#fff" opacity="0.6"/><circle cx="140.2" cy="136.9" r="1.8" fill="#fff" opacity="0.8"/><circle cx="310.8" cy="202.1" r="0.8" fill="#fff" opacity="0.5"/><circle cx="277.9" cy="122.7" r="0.8" fill="#fff" opacity="0.8"/><circle cx="22.3" cy="70.6" r="1.2" fill="#fff" opacity="0.4"/><circle cx="444.4" cy="59.6" r="1.9" fill="#fff" opacity="0.6"/><circle cx="117.2" cy="211.9" r="1.5" fill="#fff" opacity="0.4"/><circle cx="588.8" cy="110.9" r="1.1" fill="#fff" opacity="0.4"/><circle cx="278.3" cy="97.1" r="1.9" fill="#fff" opacity="0.8"/><circle cx="230.7" cy="56.1" r="0.7" fill="#fff" opacity="0.8"/><circle cx="480.4" cy="196" r="1.8" fill="#fff" opacity="0.4"/><circle cx="393.8" cy="17.1" r="1" fill="#fff" opacity="0.7"/><circle cx="373.6" cy="76.9" r="1.2" fill="#fff" opacity="0.7"/><circle cx="354.5" cy="214.7" r="1.2" fill="#fff" opacity="0.5"/><circle cx="595.9" cy="235.1" r="1.7" fill="#fff" opacity="0.8"/><circle cx="206" cy="181.9" r="0.6" fill="#fff" opacity="0.9"/><circle cx="323.6" cy="119.1" r="1.3" fill="#fff" opacity="0.5"/><circle cx="562.4" cy="148.4" r="0.7" fill="#fff" opacity="0.4"/><circle cx="215" cy="225.8" r="1.9" fill="#fff" opacity="0.4"/><circle cx="134.4" cy="304.6" r="1.6" fill="#fff" opacity="0.7"/><circle cx="458.7" cy="102" r="1.8" fill="#fff" opacity="0.6"/><circle cx="28" cy="20.9" r="1.3" fill="#fff" opacity="0.6"/><circle cx="321.3" cy="158" r="1.8" fill="#fff" opacity="0.8"/><circle cx="489.8" cy="245.4" r="1.2" fill="#fff" opacity="0.7"/><circle cx="387.9" cy="75.7" r="0.8" fill="#fff" opacity="0.7"/><circle cx="210.7" cy="156.4" r="1.1" fill="#fff" opacity="0.4"/><circle cx="33.8" cy="109.4" r="0.9" fill="#fff" opacity="0.5"/><circle cx="183.1" cy="4.5" r="0.6" fill="#fff" opacity="0.6"/><circle cx="145.7" cy="223.4" r="0.6" fill="#fff" opacity="0.8"/><circle cx="509.8" cy="175" r="1.7" fill="#fff" opacity="0.5"/><circle cx="107.9" cy="259.6" r="1.1" fill="#fff" opacity="0.8"/><circle cx="244" cy="187.3" r="0.9" fill="#fff" opacity="0.6"/><circle cx="166.4" cy="286.3" r="0.8" fill="#fff" opacity="0.8"/><circle cx="49.5" cy="142.8" r="0.9" fill="#fff" opacity="0.7"/><circle cx="466" cy="196.8" r="1.9" fill="#fff" opacity="0.9"/><path d="M0 357.8 Q 150 326.8 300 351.6 T 600 339.2 V 382.6 H 0 Z" fill="#101d42"/><polygon points="39.6,231.6 75.4,301.4 62.4,301.4 104.7,386.6 -25.5,386.6 16.8,301.4 3.8,301.4" fill="#0b1530"/><polygon points="76.8,281.2 101.1,328.6 92.3,328.6 121.1,386.6 32.5,386.6 61.3,328.6 52.5,328.6" fill="#0b1530"/><rect x="574" y="327.6" width="10" height="57" fill="#0b1530"/><circle cx="579" cy="296.2" r="42.8" fill="#0b1530"/><circle cx="550.5" cy="316.2" r="31.4" fill="#0b1530"/><circle cx="607.5" cy="313.3" r="31.4" fill="#0b1530"/><circle cx="259.4" cy="134.1" r="1" fill="#e8f0ff" opacity="0.6"/><circle cx="286" cy="267.6" r="1.8" fill="#e8f0ff" opacity="0.6"/><circle cx="265.7" cy="232.9" r="0.9" fill="#e8f0ff" opacity="0.6"/><circle cx="368" cy="102" r="0.7" fill="#e8f0ff" opacity="0.9"/><circle cx="123.8" cy="166.3" r="1.8" fill="#e8f0ff" opacity="0.4"/><circle cx="293.2" cy="69.3" r="1.4" fill="#e8f0ff" opacity="0.6"/><circle cx="58.7" cy="200.6" r="1.7" fill="#e8f0ff" opacity="0.9"/><circle cx="389.3" cy="176.7" r="0.9" fill="#e8f0ff" opacity="0.5"/><circle cx="229" cy="93.4" r="1.5" fill="#e8f0ff" opacity="0.6"/><circle cx="233.2" cy="278.2" r="1.4" fill="#e8f0ff" opacity="0.8"/><circle cx="188.6" cy="259.4" r="1.9" fill="#e8f0ff" opacity="0.8"/><circle cx="384.3" cy="38.3" r="1.3" fill="#e8f0ff" opacity="0.4"/><circle cx="60.9" cy="217.3" r="1.1" fill="#e8f0ff" opacity="0.8"/><circle cx="167.9" cy="64.3" r="1.5" fill="#e8f0ff" opacity="0.9"/><circle cx="21.1" cy="7.4" r="0.8" fill="#e8f0ff" opacity="0.5"/><circle cx="361.2" cy="225.6" r="1" fill="#e8f0ff" opacity="0.9"/><circle cx="128.6" cy="270.4" r="2" fill="#e8f0ff" opacity="0.5"/><circle cx="147.2" cy="3" r="0.7" fill="#e8f0ff" opacity="0.8"/><circle cx="492.8" cy="216.6" r="1.2" fill="#e8f0ff" opacity="0.5"/><circle cx="134.6" cy="140.9" r="1.7" fill="#e8f0ff" opacity="0.5"/><circle cx="227.4" cy="48.6" r="1.4" fill="#e8f0ff" opacity="0.6"/><circle cx="31.8" cy="167.1" r="1.9" fill="#e8f0ff" opacity="0.6"/><circle cx="249.2" cy="219.9" r="1.1" fill="#e8f0ff" opacity="0.5"/><circle cx="418.3" cy="250.5" r="1.4" fill="#e8f0ff" opacity="0.9"/><circle cx="277" cy="14.8" r="1.6" fill="#e8f0ff" opacity="0.4"/><circle cx="408" cy="8.4" r="1.6" fill="#e8f0ff" opacity="0.7"/><circle cx="159.9" cy="153.3" r="1.8" fill="#e8f0ff" opacity="0.5"/><circle cx="355.4" cy="133.8" r="1.3" fill="#e8f0ff" opacity="0.7"/><circle cx="546.3" cy="4.9" r="1.6" fill="#e8f0ff" opacity="0.6"/><circle cx="444.7" cy="182.2" r="1.7" fill="#e8f0ff" opacity="0.7"/><circle cx="393.4" cy="249.9" r="1.3" fill="#e8f0ff" opacity="0.9"/><circle cx="246.1" cy="17.4" r="0.9" fill="#e8f0ff" opacity="0.5"/><circle cx="392.6" cy="21.4" r="1.6" fill="#e8f0ff" opacity="0.6"/><circle cx="577.6" cy="88.8" r="1.5" fill="#e8f0ff" opacity="0.6"/><circle cx="64.8" cy="99.6" r="1.4" fill="#e8f0ff" opacity="0.5"/><circle cx="256.8" cy="20.3" r="0.9" fill="#e8f0ff" opacity="0.9"/><circle cx="586.8" cy="185" r="1.9" fill="#e8f0ff" opacity="0.6"/><circle cx="317" cy="91.2" r="1.2" fill="#e8f0ff" opacity="0.4"/><circle cx="175.5" cy="200.4" r="1.3" fill="#e8f0ff" opacity="0.7"/><circle cx="25.2" cy="245.6" r="1.6" fill="#e8f0ff" opacity="0.6"/><rect x="0" y="380.6" width="600" height="59.4" fill="url(#cgr)"/><g transform="translate(52 116) scale(0.62)"><rect x="440" y="104" width="40" height="70" fill="#1b2648"/><rect x="434" y="98" width="52" height="10" rx="2" fill="#3a4a7a"/><rect x="550" y="292" width="210" height="140" fill="#1b2648"/><polygon points="534,298 586,248 724,248 776,298" fill="#101832"/><rect x="580" y="330" width="150" height="100" rx="3" fill="#1f2a4f"/><path d="M580 355h150" stroke="#3a4a7a" stroke-width="2" opacity="0.7"/><path d="M580 380h150" stroke="#3a4a7a" stroke-width="2" opacity="0.7"/><path d="M580 405h150" stroke="#3a4a7a" stroke-width="2" opacity="0.7"/><rect x="110" y="214" width="440" height="218" fill="#24315a"/><path d="M110 318h440" stroke="#1b2648" stroke-width="6"/><polygon points="86,226 330,80 574,226" fill="#101832"/><polyline points="86,226 330,80 574,226" fill="none" stroke="#3a4a7a" stroke-width="6" stroke-linejoin="round"/><polyline points="534,298 776,298" fill="none" stroke="#3a4a7a" stroke-width="5"/><circle cx="330" cy="168" r="14" fill="#1b2648" stroke="#3a4a7a" stroke-width="3"/><rect x="156" y="240" width="78" height="66" rx="3" fill="#3a4a7a"/><rect x="160" y="244" width="70" height="58" fill="url(#win)"/><path d="M195 244v58M160 273h70" stroke="#3a4a7a" stroke-width="3"/><rect x="296" y="246" width="68" height="58" rx="3" fill="#3a4a7a"/><rect x="300" y="250" width="60" height="50" fill="url(#win)"/><path d="M330 250v50M300 275h60" stroke="#3a4a7a" stroke-width="3"/><rect x="426" y="240" width="78" height="66" rx="3" fill="#3a4a7a"/><rect x="430" y="244" width="70" height="58" fill="url(#win)"/><path d="M465 244v58M430 273h70" stroke="#3a4a7a" stroke-width="3"/><rect x="146" y="340" width="98" height="66" rx="3" fill="#3a4a7a"/><rect x="150" y="344" width="90" height="58" fill="url(#win)"/><path d="M195 344v58M150 373h90" stroke="#3a4a7a" stroke-width="3"/><rect x="416" y="340" width="98" height="66" rx="3" fill="#3a4a7a"/><rect x="420" y="344" width="90" height="58" fill="url(#win)"/><path d="M465 344v58M420 373h90" stroke="#3a4a7a" stroke-width="3"/><rect x="282" y="318" width="96" height="12" rx="2" fill="#101832"/><rect x="302" y="334" width="56" height="98" rx="3" fill="#3b2530"/><circle cx="348" cy="386" r="3" fill="#ffc86b"/><circle cx="290" cy="350" r="10" fill="#ffd27a" opacity="0.35" filter="url(#glow)"/><circle cx="290" cy="350" r="4" fill="#ffe3a3"/><polygon points="306,432 354,432 374,470 286,470" fill="#1e2947"/><polygon points="584,432 726,432 780,470 560,470" fill="#1a2442"/><ellipse cx="140" cy="430" rx="46" ry="22" fill="#0d2626"/><ellipse cx="240" cy="432" rx="40" ry="18" fill="#0d2626"/><ellipse cx="505" cy="432" rx="44" ry="20" fill="#0d2626"/><polyline points="90,231 330,91 570,231" fill="none" stroke="#ff9d7a" stroke-width="34" stroke-opacity="0.28" filter="url(#wash)"/><polyline points="90,231 330,91 570,231" fill="none" stroke="#0a1022" stroke-width="3" stroke-opacity="0.6"/><g filter="url(#glow)" opacity="0.95"><circle cx="90" cy="231" r="9.4" fill="#ff4d4d"/><circle cx="103.8" cy="222.9" r="9.4" fill="#3ddc84"/><circle cx="117.6" cy="214.9" r="9.4" fill="#fff4e0"/><circle cx="131.5" cy="206.8" r="9.4" fill="#ff4d4d"/><circle cx="145.3" cy="198.8" r="9.4" fill="#3ddc84"/><circle cx="159.1" cy="190.7" r="9.4" fill="#fff4e0"/><circle cx="172.9" cy="182.6" r="9.4" fill="#ff4d4d"/><circle cx="186.7" cy="174.6" r="9.4" fill="#3ddc84"/><circle cx="200.6" cy="166.5" r="9.4" fill="#fff4e0"/><circle cx="214.4" cy="158.4" r="9.4" fill="#ff4d4d"/><circle cx="228.2" cy="150.4" r="9.4" fill="#3ddc84"/><circle cx="242" cy="142.3" r="9.4" fill="#fff4e0"/><circle cx="255.8" cy="134.3" r="9.4" fill="#ff4d4d"/><circle cx="269.7" cy="126.2" r="9.4" fill="#3ddc84"/><circle cx="283.5" cy="118.1" r="9.4" fill="#fff4e0"/><circle cx="297.3" cy="110.1" r="9.4" fill="#ff4d4d"/><circle cx="311.1" cy="102" r="9.4" fill="#3ddc84"/><circle cx="324.9" cy="93.9" r="9.4" fill="#fff4e0"/><circle cx="338.8" cy="96.1" r="9.4" fill="#ff4d4d"/><circle cx="352.6" cy="104.2" r="9.4" fill="#3ddc84"/><circle cx="366.4" cy="112.2" r="9.4" fill="#fff4e0"/><circle cx="380.2" cy="120.3" r="9.4" fill="#ff4d4d"/><circle cx="394.1" cy="128.4" r="9.4" fill="#3ddc84"/><circle cx="407.9" cy="136.4" r="9.4" fill="#fff4e0"/><circle cx="421.7" cy="144.5" r="9.4" fill="#ff4d4d"/><circle cx="435.5" cy="152.5" r="9.4" fill="#3ddc84"/><circle cx="449.3" cy="160.6" r="9.4" fill="#fff4e0"/><circle cx="463.2" cy="168.7" r="9.4" fill="#ff4d4d"/><circle cx="477" cy="176.7" r="9.4" fill="#3ddc84"/><circle cx="490.8" cy="184.8" r="9.4" fill="#fff4e0"/><circle cx="504.6" cy="192.9" r="9.4" fill="#ff4d4d"/><circle cx="518.4" cy="200.9" r="9.4" fill="#3ddc84"/><circle cx="532.3" cy="209" r="9.4" fill="#fff4e0"/><circle cx="546.1" cy="217" r="9.4" fill="#ff4d4d"/><circle cx="559.9" cy="225.1" r="9.4" fill="#3ddc84"/></g><g><circle cx="90" cy="231" r="3.6" fill="#ffafaf"/><circle cx="103.8" cy="222.9" r="3.6" fill="#a8efc8"/><circle cx="117.6" cy="214.9" r="3.6" fill="#fffaf1"/><circle cx="131.5" cy="206.8" r="3.6" fill="#ffafaf"/><circle cx="145.3" cy="198.8" r="3.6" fill="#a8efc8"/><circle cx="159.1" cy="190.7" r="3.6" fill="#fffaf1"/><circle cx="172.9" cy="182.6" r="3.6" fill="#ffafaf"/><circle cx="186.7" cy="174.6" r="3.6" fill="#a8efc8"/><circle cx="200.6" cy="166.5" r="3.6" fill="#fffaf1"/><circle cx="214.4" cy="158.4" r="3.6" fill="#ffafaf"/><circle cx="228.2" cy="150.4" r="3.6" fill="#a8efc8"/><circle cx="242" cy="142.3" r="3.6" fill="#fffaf1"/><circle cx="255.8" cy="134.3" r="3.6" fill="#ffafaf"/><circle cx="269.7" cy="126.2" r="3.6" fill="#a8efc8"/><circle cx="283.5" cy="118.1" r="3.6" fill="#fffaf1"/><circle cx="297.3" cy="110.1" r="3.6" fill="#ffafaf"/><circle cx="311.1" cy="102" r="3.6" fill="#a8efc8"/><circle cx="324.9" cy="93.9" r="3.6" fill="#fffaf1"/><circle cx="338.8" cy="96.1" r="3.6" fill="#ffafaf"/><circle cx="352.6" cy="104.2" r="3.6" fill="#a8efc8"/><circle cx="366.4" cy="112.2" r="3.6" fill="#fffaf1"/><circle cx="380.2" cy="120.3" r="3.6" fill="#ffafaf"/><circle cx="394.1" cy="128.4" r="3.6" fill="#a8efc8"/><circle cx="407.9" cy="136.4" r="3.6" fill="#fffaf1"/><circle cx="421.7" cy="144.5" r="3.6" fill="#ffafaf"/><circle cx="435.5" cy="152.5" r="3.6" fill="#a8efc8"/><circle cx="449.3" cy="160.6" r="3.6" fill="#fffaf1"/><circle cx="463.2" cy="168.7" r="3.6" fill="#ffafaf"/><circle cx="477" cy="176.7" r="3.6" fill="#a8efc8"/><circle cx="490.8" cy="184.8" r="3.6" fill="#fffaf1"/><circle cx="504.6" cy="192.9" r="3.6" fill="#ffafaf"/><circle cx="518.4" cy="200.9" r="3.6" fill="#a8efc8"/><circle cx="532.3" cy="209" r="3.6" fill="#fffaf1"/><circle cx="546.1" cy="217" r="3.6" fill="#ffafaf"/><circle cx="559.9" cy="225.1" r="3.6" fill="#a8efc8"/></g><polyline points="536,304 774,304" fill="none" stroke="#ff9d7a" stroke-width="34" stroke-opacity="0.28" filter="url(#wash)"/><polyline points="536,304 774,304" fill="none" stroke="#0a1022" stroke-width="3" stroke-opacity="0.6"/><g filter="url(#glow)" opacity="0.95"><circle cx="536" cy="304" r="9.4" fill="#ff4d4d"/><circle cx="552" cy="304" r="9.4" fill="#3ddc84"/><circle cx="568" cy="304" r="9.4" fill="#fff4e0"/><circle cx="584" cy="304" r="9.4" fill="#ff4d4d"/><circle cx="600" cy="304" r="9.4" fill="#3ddc84"/><circle cx="616" cy="304" r="9.4" fill="#fff4e0"/><circle cx="632" cy="304" r="9.4" fill="#ff4d4d"/><circle cx="648" cy="304" r="9.4" fill="#3ddc84"/><circle cx="664" cy="304" r="9.4" fill="#fff4e0"/><circle cx="680" cy="304" r="9.4" fill="#ff4d4d"/><circle cx="696" cy="304" r="9.4" fill="#3ddc84"/><circle cx="712" cy="304" r="9.4" fill="#fff4e0"/><circle cx="728" cy="304" r="9.4" fill="#ff4d4d"/><circle cx="744" cy="304" r="9.4" fill="#3ddc84"/><circle cx="760" cy="304" r="9.4" fill="#fff4e0"/></g><g><circle cx="536" cy="304" r="3.6" fill="#ffafaf"/><circle cx="552" cy="304" r="3.6" fill="#a8efc8"/><circle cx="568" cy="304" r="3.6" fill="#fffaf1"/><circle cx="584" cy="304" r="3.6" fill="#ffafaf"/><circle cx="600" cy="304" r="3.6" fill="#a8efc8"/><circle cx="616" cy="304" r="3.6" fill="#fffaf1"/><circle cx="632" cy="304" r="3.6" fill="#ffafaf"/><circle cx="648" cy="304" r="3.6" fill="#a8efc8"/><circle cx="664" cy="304" r="3.6" fill="#fffaf1"/><circle cx="680" cy="304" r="3.6" fill="#ffafaf"/><circle cx="696" cy="304" r="3.6" fill="#a8efc8"/><circle cx="712" cy="304" r="3.6" fill="#fffaf1"/><circle cx="728" cy="304" r="3.6" fill="#ffafaf"/><circle cx="744" cy="304" r="3.6" fill="#a8efc8"/><circle cx="760" cy="304" r="3.6" fill="#fffaf1"/></g><ellipse cx="420" cy="462" rx="360" ry="26" fill="#ff9d7a" opacity="0.16" filter="url(#wash)"/><circle cx="330" cy="362" r="17" fill="none" stroke="#2f9e5a" stroke-width="9"/><path d="M322 346 l8 7 l8 -7 l-2 10 h-12z" fill="#e03131"/><path d="M86 226 L330 80 L574 226 L562 226 L330 92 L98 226Z" fill="#eef4ff" opacity="0.9"/><path d="M534 298 L586 248 L724 248 L776 298 L766 298 L720 256 L590 256 L544 298Z" fill="#eef4ff" opacity="0.9"/></g></svg>
